<mxfile host="app.diagrams.net" modified="2022-05-08T02:22:17.421Z" agent="5.0 (Windows NT 10.0; Win64; x64) AppleWebKit/537.36 (KHTML, like Gecko) Chrome/101.0.4951.54 Safari/537.36" etag="Pw5Y_ZAPtRB8cKv8FsgP" version="18.0.2" type="github">
  <diagram name="Page-1" id="55a83fd1-7818-8e21-69c5-c3457e3827bb">
    <mxGraphModel dx="1209" dy="681" grid="1" gridSize="10" guides="1" tooltips="1" connect="1" arrows="1" fold="1" page="1" pageScale="1" pageWidth="4681" pageHeight="3300" background="none" math="0" shadow="0">
      <root>
        <mxCell id="0" />
        <mxCell id="1" parent="0" />
        <mxCell id="4Mrf7dG5I7gFZIvtvuGR-1" value="PC" style="rounded=0;whiteSpace=wrap;html=1;" vertex="1" parent="1">
          <mxGeometry x="380" y="80" width="580" height="60" as="geometry" />
        </mxCell>
        <mxCell id="4Mrf7dG5I7gFZIvtvuGR-2" value="访问层" style="rounded=0;whiteSpace=wrap;html=1;" vertex="1" parent="1">
          <mxGeometry x="210" y="80" width="120" height="60" as="geometry" />
        </mxCell>
        <mxCell id="4Mrf7dG5I7gFZIvtvuGR-3" value="视图层" style="rounded=0;whiteSpace=wrap;html=1;" vertex="1" parent="1">
          <mxGeometry x="210" y="180" width="120" height="60" as="geometry" />
        </mxCell>
        <mxCell id="4Mrf7dG5I7gFZIvtvuGR-4" value="MySQL数据库" style="rounded=0;whiteSpace=wrap;html=1;" vertex="1" parent="1">
          <mxGeometry x="380" y="580" width="580" height="60" as="geometry" />
        </mxCell>
        <mxCell id="4Mrf7dG5I7gFZIvtvuGR-5" value="数据的读取处理" style="rounded=0;whiteSpace=wrap;html=1;" vertex="1" parent="1">
          <mxGeometry x="380" y="480" width="580" height="60" as="geometry" />
        </mxCell>
        <mxCell id="4Mrf7dG5I7gFZIvtvuGR-6" value="处理用户发送请求" style="rounded=0;whiteSpace=wrap;html=1;" vertex="1" parent="1">
          <mxGeometry x="380" y="280" width="580" height="60" as="geometry" />
        </mxCell>
        <mxCell id="4Mrf7dG5I7gFZIvtvuGR-7" value="处理逻辑业务" style="rounded=0;whiteSpace=wrap;html=1;" vertex="1" parent="1">
          <mxGeometry x="380" y="380" width="580" height="60" as="geometry" />
        </mxCell>
        <mxCell id="4Mrf7dG5I7gFZIvtvuGR-8" value="JSP" style="rounded=0;whiteSpace=wrap;html=1;" vertex="1" parent="1">
          <mxGeometry x="380" y="180" width="580" height="60" as="geometry" />
        </mxCell>
        <mxCell id="4Mrf7dG5I7gFZIvtvuGR-10" value="" style="shape=singleArrow;direction=south;whiteSpace=wrap;html=1;" vertex="1" parent="1">
          <mxGeometry x="660" y="140" width="20" height="40" as="geometry" />
        </mxCell>
        <mxCell id="4Mrf7dG5I7gFZIvtvuGR-11" value="控制层" style="rounded=0;whiteSpace=wrap;html=1;" vertex="1" parent="1">
          <mxGeometry x="210" y="280" width="120" height="60" as="geometry" />
        </mxCell>
        <mxCell id="4Mrf7dG5I7gFZIvtvuGR-12" value="服务层" style="rounded=0;whiteSpace=wrap;html=1;" vertex="1" parent="1">
          <mxGeometry x="210" y="380" width="120" height="60" as="geometry" />
        </mxCell>
        <mxCell id="4Mrf7dG5I7gFZIvtvuGR-13" value="数据持久层" style="rounded=0;whiteSpace=wrap;html=1;" vertex="1" parent="1">
          <mxGeometry x="210" y="480" width="120" height="60" as="geometry" />
        </mxCell>
        <mxCell id="4Mrf7dG5I7gFZIvtvuGR-14" value="数据存储层" style="rounded=0;whiteSpace=wrap;html=1;" vertex="1" parent="1">
          <mxGeometry x="210" y="580" width="120" height="60" as="geometry" />
        </mxCell>
        <mxCell id="4Mrf7dG5I7gFZIvtvuGR-15" value="" style="aspect=fixed;perimeter=ellipsePerimeter;html=1;align=center;shadow=0;dashed=0;spacingTop=3;image;image=img/lib/active_directory/database.svg;" vertex="1" parent="1">
          <mxGeometry x="580" y="591.5" width="50" height="37" as="geometry" />
        </mxCell>
        <mxCell id="4Mrf7dG5I7gFZIvtvuGR-16" value="" style="aspect=fixed;perimeter=ellipsePerimeter;html=1;align=center;shadow=0;dashed=0;spacingTop=3;image;image=img/lib/active_directory/laptop_client.svg;" vertex="1" parent="1">
          <mxGeometry x="615" y="85" width="45" height="50" as="geometry" />
        </mxCell>
        <mxCell id="4Mrf7dG5I7gFZIvtvuGR-17" value="" style="shape=singleArrow;direction=south;whiteSpace=wrap;html=1;" vertex="1" parent="1">
          <mxGeometry x="605" y="240" width="20" height="40" as="geometry" />
        </mxCell>
        <mxCell id="4Mrf7dG5I7gFZIvtvuGR-18" value="" style="shape=singleArrow;direction=north;whiteSpace=wrap;html=1;" vertex="1" parent="1">
          <mxGeometry x="710" y="240" width="20" height="40" as="geometry" />
        </mxCell>
        <mxCell id="4Mrf7dG5I7gFZIvtvuGR-23" value="" style="shape=singleArrow;direction=south;whiteSpace=wrap;html=1;" vertex="1" parent="1">
          <mxGeometry x="660" y="340" width="20" height="40" as="geometry" />
        </mxCell>
        <mxCell id="4Mrf7dG5I7gFZIvtvuGR-24" value="" style="shape=singleArrow;direction=south;whiteSpace=wrap;html=1;" vertex="1" parent="1">
          <mxGeometry x="660" y="440" width="20" height="40" as="geometry" />
        </mxCell>
        <mxCell id="4Mrf7dG5I7gFZIvtvuGR-25" value="" style="shape=singleArrow;direction=south;whiteSpace=wrap;html=1;" vertex="1" parent="1">
          <mxGeometry x="660" y="540" width="20" height="40" as="geometry" />
        </mxCell>
      </root>
    </mxGraphModel>
  </diagram>
</mxfile>
